<svg xmlns="http://www.w3.org/2000/svg" viewBox="0 0 1200 630" role="img" aria-label="HealthCalcHub social cover">
  <defs>
    <linearGradient id="bg" x1="0%" y1="0%" x2="100%" y2="100%">
      <stop offset="0%" stop-color="#173b36" />
      <stop offset="55%" stop-color="#2f7b6d" />
      <stop offset="100%" stop-color="#f2b94b" />
    </linearGradient>
  </defs>
  <rect width="1200" height="630" fill="url(#bg)" rx="32" />
  <circle cx="1030" cy="120" r="140" fill="rgba(255,255,255,0.1)" />
  <circle cx="150" cy="530" r="180" fill="rgba(255,255,255,0.08)" />
  <g transform="translate(120 135)">
    <rect x="0" y="0" width="108" height="108" rx="28" fill="#112031" />
    <path d="M22 50h18V36h28v14h18v28H68v14H40V78H22z" fill="#f2b94b" />
    <path d="M54 14c14 0 26 12 26 26 0 24.8-26 50.8-26 50.8S28 64.8 28 40c0-14 12-26 26-26z" fill="none" stroke="#de6b48" stroke-width="6" />
  </g>
  <text x="120" y="330" fill="#fffaf2" font-family="Georgia, serif" font-size="72" font-weight="700">
    HealthCalcHub
  </text>
  <text x="120" y="395" fill="#fffaf2" font-family="Avenir Next, Segoe UI, sans-serif" font-size="30" opacity="0.9">
    Health &amp; Fitness Tools Ecosystem
  </text>
  <text x="120" y="470" fill="#fffaf2" font-family="Avenir Next, Segoe UI, sans-serif" font-size="24" opacity="0.82">
    Calculators, SEO landing pages, FAQs, and content loops built for growth.
  </text>
</svg>
